<svg width="901" height="116" viewBox="0 0 901 116" fill="none" xmlns="http://www.w3.org/2000/svg">
<path d="M108.153 1.47034H86.5875V4.73784C93.1224 4.73784 94.266 7.67849 91.162 16.9907L69.27 81.1962L43.2938 16.664C39.6996 7.51514 40.5164 4.73784 47.0513 4.73784V1.47034H0V4.73784C6.53489 4.73784 12.4163 7.51516 16.1739 16.5006L57.9973 114.197H59.9578L93.1224 16.9907C96.2265 7.67849 101.618 4.73776 108.153 4.73776L108.153 1.47034Z" fill="#D9D9D9"/>
<path d="M117.955 81.3596C117.955 100.311 133.312 115.668 152.59 115.668C171.541 115.668 186.898 100.311 186.898 81.3596C186.898 62.7351 171.541 47.3781 152.59 47.3781C133.312 47.3781 117.955 62.7351 117.955 81.3596ZM142.624 81.5229C142.624 64.3688 144.585 49.0119 152.59 49.0119C160.595 49.0119 162.393 64.3688 162.393 81.5229C162.393 97.8602 160.595 114.034 152.59 114.034C144.585 114.034 142.624 97.8602 142.624 81.5229Z" fill="#D9D9D9"/>
<path d="M275.12 97.8603V47.3781H271.852C271.852 47.3781 263.683 48.8485 250.614 48.8485H240.811V52.1159C247.346 52.1159 250.614 55.3834 250.614 65.1858V94.5928C240.811 114.198 227.742 107.173 227.742 90.8353C227.742 82.83 227.578 69.5968 227.742 50.4822V47.3781H224.474C224.474 47.3781 216.305 48.8485 203.236 48.8485H193.433V52.1159C199.968 52.1159 203.236 55.3834 203.236 65.1858V90.8353C203.236 107.173 209.934 115.668 223.004 115.668C236.074 115.668 245.713 107.663 250.614 97.8603V115.668H253.881C253.881 115.668 262.05 114.198 275.12 114.198H284.922V110.93C278.387 110.93 275.12 107.663 275.12 97.8603Z" fill="#D9D9D9"/>
<path d="M401.897 57.5071C401.897 26.7931 376.737 1.47034 342.592 1.47034H291.457V4.73784C297.992 4.73784 301.259 8.00524 301.259 17.8076V97.8602C301.259 107.663 297.992 110.93 291.457 110.93V114.198H342.592C376.901 114.198 402.387 88.8746 401.897 57.5071ZM331.81 112.074H325.765V3.59416H331.81C363.994 3.59416 377.391 29.407 377.391 57.6705C377.391 84.7903 363.994 112.074 331.81 112.074Z" fill="#D9D9D9"/>
<path d="M408.432 82.9933C408.432 101.945 425.912 115.668 446.171 115.668C466.102 115.668 475.414 103.415 478.682 94.7561L477.048 93.6125C474.761 98.6771 469.696 107.336 455.973 107.336C443.557 107.336 434.571 99.6574 432.774 80.8695H475.904C475.904 65.5125 465.122 47.3781 443.067 47.3781C421.011 47.3781 408.432 64.3689 408.432 82.9933ZM432.611 78.7456C431.794 64.8589 434.571 49.0119 443.067 49.0119C451.562 49.0119 453.359 64.8589 453.359 78.7456H432.611Z" fill="#D9D9D9"/>
<path d="M540.6 57.3438C553.67 53.5862 564.616 42.8036 564.616 30.2239C564.779 14.7035 547.788 1.47034 530.634 1.47034H485.217V4.73776C491.752 4.73776 495.019 8.00524 495.019 17.8076V97.8602C495.019 107.663 491.752 110.93 485.217 110.93V114.198H534.392C551.546 114.198 568.373 101.128 568.373 85.4439C568.373 71.7206 555.303 59.9577 540.6 57.3438ZM525.08 3.59416C537.332 3.59416 540.11 16.0105 540.11 30.2239C540.11 43.9472 537.332 56.8537 525.08 56.8537H519.525V3.59416H525.08ZM529 112.074H519.525V58.8142H529C541.09 58.8142 543.867 71.067 543.867 85.4438C543.867 99.0037 541.09 112.074 529 112.074Z" fill="#D9D9D9"/>
<path d="M651.857 94.7561C651.857 99.6573 649.896 105.375 644.995 105.375C640.094 105.375 638.133 99.3305 638.133 88.0578V74.0078C638.133 59.3043 624.083 47.3781 603.498 47.3781C594.35 47.2147 583.24 50.4822 578.176 58.8142C574.418 64.2055 577.686 70.9037 582.75 73.3543C587.978 75.9683 594.35 74.3346 597.127 69.1067C599.904 63.7154 598.434 58.8142 593.043 54.7299C591.736 53.5862 595.983 49.0118 603.498 49.0118C611.014 49.0118 613.628 56.2002 613.628 64.5322V74.3345C600.394 76.1317 574.908 80.7061 574.908 96.7166C574.908 110.44 587.161 115.668 599.251 115.668C609.38 115.668 614.608 108.97 617.222 104.395C621.47 112.237 628.985 115.668 636.5 115.668C644.668 115.668 653.491 107.826 653.491 94.7561H651.857ZM608.236 108.97C604.969 108.97 599.414 107.663 599.414 95.573C599.414 83.6468 606.112 78.909 613.628 76.7852V88.0578C613.628 93.9392 614.608 98.6771 616.405 102.598C614.118 106.029 611.667 108.97 608.236 108.97Z" fill="#D9D9D9"/>
<path d="M717.859 43.9472C707.73 43.9472 699.235 52.1159 694.334 61.9182V47.3781H691.066C691.066 47.3781 682.898 48.8484 669.828 48.8484H660.025V52.1159C666.56 52.1159 669.828 55.3833 669.828 65.1856V97.8602C669.828 107.663 666.56 110.93 660.025 110.93V114.198H704.136V110.93C697.601 110.93 694.334 107.663 694.334 97.8602V65.1856C704.136 45.2542 705.443 56.5269 705.443 56.5269C706.587 64.6955 710.998 68.9433 717.859 68.9433C724.721 68.9433 730.276 63.3886 730.276 56.5269C730.276 49.992 725.374 43.9472 717.859 43.9472Z" fill="#D9D9D9"/>
<path d="M776.347 49.6652C774.55 50.6454 772.753 51.6257 771.119 52.9327V0H767.851C767.851 0 759.683 1.47031 746.613 1.47031H736.811V4.73781C743.345 4.73781 746.613 8.00521 746.613 17.8076V97.8602C746.613 107.663 743.345 110.93 736.811 110.93V114.197H771.119V110.113C772.753 111.42 774.55 112.4 776.347 113.381C791.704 121.222 815.883 108.316 815.883 81.5229C815.883 54.5665 791.704 41.8233 776.347 49.6652ZM776.347 108.806C774.386 108.806 772.589 108.153 771.119 106.846V56.0368C772.589 54.7298 774.386 54.0763 776.347 54.0763C786.312 54.0763 794.644 66.1659 794.644 81.3596C794.644 97.6968 786.312 108.806 776.347 108.806Z" fill="#D9D9D9"/>
<path d="M899.366 94.7561C899.366 99.6573 897.406 105.375 892.505 105.375C887.603 105.375 885.643 99.3305 885.643 88.0578V74.0078C885.643 59.3043 871.593 47.3781 851.008 47.3781C841.859 47.2147 830.75 50.4822 825.685 58.8142C821.928 64.2055 825.195 70.9037 830.26 73.3543C835.488 75.9683 841.859 74.3346 844.636 69.1067C847.414 63.7154 845.943 58.8142 840.552 54.7299C839.245 53.5862 843.493 49.0118 851.008 49.0118C858.523 49.0118 861.137 56.2002 861.137 64.5322V74.3345C847.904 76.1317 822.418 80.7061 822.418 96.7166C822.418 110.44 834.671 115.668 846.76 115.668C856.889 115.668 862.117 108.97 864.731 104.395C868.979 112.237 876.494 115.668 884.009 115.668C892.178 115.668 901 107.826 901 94.7561H899.366ZM855.746 108.97C852.478 108.97 846.924 107.663 846.924 95.573C846.924 83.6468 853.622 78.909 861.137 76.7852V88.0578C861.137 93.9392 862.117 98.6771 863.914 102.598C861.627 106.029 859.177 108.97 855.746 108.97Z" fill="#D9D9D9"/>
</svg>
