<svg width="283" height="431" viewBox="0 0 283 431" fill="none" xmlns="http://www.w3.org/2000/svg">
<path fill-rule="evenodd" clip-rule="evenodd" d="M130.765 2.09838C141.107 2.00749 154.481 1.53124 160.486 1.04164C177.557 -0.353242 190.435 -0.34718 200.559 1.05979C232.979 5.56432 257.208 18.6391 265.144 35.912C267.594 41.2453 268.025 43.7722 267.621 50.4543C267.352 54.9019 266.302 60.1772 265.287 62.1768C263.528 65.6391 263.597 66.0148 266.726 70.0636C272.25 77.2113 277.365 88.4973 280.22 99.8438C285.341 120.187 283.043 163.576 276.146 176.797C272.676 183.446 272.7 199.577 276.218 224.255C278.955 243.457 279.559 267.757 277.571 278.634C276.914 282.223 275.065 288.705 273.458 293.038C271.853 297.371 269.405 306.275 268.019 312.827C261.847 341.977 243.764 370.168 219.558 388.37C214.425 392.231 206.112 399.247 201.087 403.961C182.141 421.735 167.305 429.164 147.525 430.778C126.021 432.533 105.422 423.911 83.9239 404.16C79.3273 399.94 72.2925 394.124 68.2892 391.239C43.8402 373.613 23.2718 342.9 16.545 313.974C15.1839 308.125 12.5236 299.234 10.6311 294.217C8.73982 289.2 6.53441 281.324 5.73132 276.716C3.84735 265.908 4.90882 242.194 8.07138 224.442C13.0185 196.672 12.8984 183.958 7.61283 176.177C3.71629 170.442 1.00863 155.039 0.140035 133.677C-1.20531 100.571 7.20153 75.2044 22.841 65.1786C27.6911 62.069 29.0874 60.3784 30.1731 56.3041C34.5415 39.9026 48.5324 23.0734 64.8476 14.594C81.7717 5.79814 99.8507 2.37106 130.765 2.09838ZM39.127 107.273C37.7235 82.4102 42.7676 72.3796 59.4213 66.9129C67.0821 64.3982 87.381 65.5386 100.436 69.2178C106.108 70.8163 117.299 74.6966 125.306 77.8427C141.272 84.1153 141.821 84.1565 159.273 80.413C170.371 78.0329 187.745 78.5359 201.125 81.6237C205.462 82.6247 215.728 83.7833 223.938 84.1991L238.865 84.9551L241.414 89.9259C243.447 93.8915 244.12 98.0846 244.738 110.652L245.513 126.406L251.723 137.918C260.85 154.84 263.103 163.196 263.888 183.044C264.623 201.659 263.27 212.98 258.496 228.131C251.381 250.711 237.947 275.31 231.902 276.826C229.362 277.463 227.456 276.184 219.561 268.543C205.397 254.835 194.734 249.612 175.194 246.812C162.663 245.015 152.911 246.184 147.003 250.189L142.521 253.228L136.339 249.805C130.742 246.705 129.07 246.386 118.634 246.44C97.7338 246.544 80.0526 253.905 65.6809 268.485C60.4379 273.803 56.0112 277.284 54.4874 277.284C48.3066 277.284 35.0303 253.861 27.2749 229.271C21.2723 210.238 19.9016 200.199 20.7179 181.215C21.5732 161.313 24.2409 151.4 33.2786 134.54L39.9617 122.073L39.127 107.273ZM111.567 281.678C126.851 279.252 133.69 277.099 138.638 273.154C142.26 270.266 142.269 270.265 145.56 272.606C151.431 276.782 158.995 279.385 173.224 282.125C195.149 286.347 198.114 288.834 197.256 302.284C196.786 309.674 196.394 310.634 192.361 314.328C187.384 318.884 179.526 321.453 173.831 320.385C167.962 319.286 164.706 314.996 163.61 306.918C162.267 297.035 161.488 296.674 141.52 296.674C125.655 296.674 124.744 296.806 122.948 299.367C121.91 300.848 121.06 303.874 121.06 306.093C121.06 318.134 109.894 323.316 97.1895 317.171C87.4517 312.462 83.3438 301.771 87.7281 292.544C90.5712 286.556 95.7755 284.183 111.567 281.678Z" fill="black"/>
</svg>
