<svg width="899" height="116" viewBox="0 0 899 116" fill="none" xmlns="http://www.w3.org/2000/svg">
<path d="M107.854 1.4662H86.348V4.72466C92.8648 4.72466 94.0053 7.65719 90.9098 16.9437L69.0784 80.9715L43.174 16.6178C39.5897 7.49428 40.4044 4.72466 46.9212 4.72466V1.4662H0V4.72466C6.51682 4.72466 12.382 7.49431 16.1292 16.4549L57.8369 113.881H59.7919L92.8648 16.9437C95.9603 7.65719 101.337 4.72458 107.853 4.72458L107.854 1.4662Z" fill="black"/>
<path d="M117.629 81.1344C117.629 100.033 132.943 115.348 152.168 115.348C171.067 115.348 186.381 100.033 186.381 81.1344C186.381 62.5614 171.067 47.2469 152.168 47.2469C132.943 47.2469 117.629 62.5614 117.629 81.1344ZM142.23 81.2973C142.23 64.1906 144.185 48.8761 152.168 48.8761C160.151 48.8761 161.943 64.1906 161.943 81.2973C161.943 97.5894 160.151 113.719 152.168 113.719C144.185 113.719 142.23 97.5894 142.23 81.2973Z" fill="black"/>
<path d="M274.358 97.5894V47.2469H271.1C271.1 47.2469 262.954 48.7132 249.92 48.7132H240.145V51.9716C246.662 51.9716 249.92 55.2301 249.92 65.0053V94.331C240.145 113.881 227.111 106.876 227.111 90.5839C227.111 82.6008 226.949 69.4041 227.111 50.3424V47.2469H223.853C223.853 47.2469 215.707 48.7132 202.673 48.7132H192.898V51.9716C199.415 51.9716 202.673 55.2301 202.673 65.0053V90.5839C202.673 106.876 209.353 115.348 222.387 115.348C235.42 115.348 245.033 107.365 249.92 97.5894V115.348H253.179C253.179 115.348 261.325 113.882 274.358 113.882H284.134V110.623C277.617 110.623 274.358 107.365 274.358 97.5894Z" fill="black"/>
<path d="M400.785 57.348C400.785 26.7189 375.695 1.4662 341.645 1.4662H290.651V4.72466C297.167 4.72466 300.426 7.98303 300.426 17.7583V97.5895C300.426 107.365 297.167 110.623 290.651 110.623V113.882H341.645C375.858 113.882 401.274 88.6287 400.785 57.348ZM330.892 111.763H324.864V3.58415H330.892C362.987 3.58415 376.347 29.3256 376.347 57.5109C376.347 84.5557 362.987 111.763 330.892 111.763Z" fill="black"/>
<path d="M407.302 82.7636C407.302 101.662 424.734 115.348 444.936 115.348C464.813 115.348 474.099 103.129 477.358 94.4939L475.728 93.3535C473.448 98.404 468.397 107.039 454.712 107.039C442.33 107.039 433.369 99.3816 431.577 80.6457H474.588C474.588 65.3311 463.835 47.2469 441.841 47.2469C419.847 47.2469 407.302 64.1907 407.302 82.7636ZM431.414 78.5276C430.599 64.6794 433.369 48.8761 441.841 48.8761C450.313 48.8761 452.105 64.6794 452.105 78.5276H431.414Z" fill="black"/>
<path d="M539.105 57.1851C552.138 53.4379 563.054 42.6851 563.054 30.1402C563.217 14.6628 546.273 1.4662 529.166 1.4662H483.875V4.72458C490.391 4.72458 493.65 7.98303 493.65 17.7583V97.5895C493.65 107.365 490.391 110.623 483.875 110.623V113.882H532.914C550.02 113.882 566.801 100.848 566.801 85.2075C566.801 71.5221 553.767 59.7918 539.105 57.1851ZM523.627 3.58415C535.846 3.58415 538.616 15.9662 538.616 30.1402C538.616 43.8256 535.846 56.6963 523.627 56.6963H518.088V3.58415H523.627ZM527.537 111.763H518.088V58.6514H527.537C539.593 58.6514 542.363 70.8704 542.363 85.2074C542.363 98.7298 539.593 111.763 527.537 111.763Z" fill="black"/>
<path d="M650.054 94.494C650.054 99.3816 648.099 105.084 643.211 105.084C638.323 105.084 636.368 99.0557 636.368 87.8142V73.8031C636.368 59.1402 622.357 47.247 601.829 47.247C592.706 47.0841 581.627 50.3425 576.576 58.6514C572.829 64.0278 576.088 70.7076 581.138 73.1514C586.352 75.7581 592.706 74.1289 595.475 68.9155C598.245 63.5391 596.779 58.6515 591.402 54.5785C590.099 53.438 594.335 48.8762 601.829 48.8762C609.323 48.8762 611.93 56.0447 611.93 64.3537V74.1289C598.734 75.921 573.318 80.4828 573.318 96.449C573.318 110.134 585.537 115.348 597.593 115.348C607.694 115.348 612.908 108.668 615.515 104.106C619.75 111.926 627.245 115.348 634.739 115.348C642.885 115.348 651.683 107.528 651.683 94.494H650.054ZM606.554 108.668C603.295 108.668 597.756 107.365 597.756 95.3086C597.756 83.4154 604.436 78.6907 611.93 76.5727V87.8142C611.93 93.6794 612.908 98.4041 614.7 102.314C612.419 105.736 609.975 108.668 606.554 108.668Z" fill="black"/>
<path d="M715.874 43.8256C705.772 43.8256 697.301 51.9716 692.413 61.7469V47.2469H689.155C689.155 47.2469 681.009 48.7132 667.975 48.7132H658.2V51.9717C664.716 51.9717 667.975 55.23 667.975 65.0053V97.5895C667.975 107.365 664.716 110.623 658.2 110.623V113.882H702.188V110.623C695.671 110.623 692.413 107.365 692.413 97.5895V65.0053C702.188 45.1289 703.492 56.3705 703.492 56.3705C704.632 64.5165 709.031 68.7525 715.874 68.7525C722.716 68.7525 728.256 63.2131 728.256 56.3705C728.256 49.8536 723.368 43.8256 715.874 43.8256Z" fill="black"/>
<path d="M774.199 49.5278C772.407 50.5053 770.615 51.4829 768.986 52.7863V0H765.727C765.727 0 757.581 1.46624 744.548 1.46624H734.772V4.72471C741.289 4.72471 744.548 7.98307 744.548 17.7583V97.5895C744.548 107.365 741.289 110.623 734.772 110.623V113.882H768.986V109.809C770.615 111.112 772.407 112.089 774.199 113.067C789.514 120.887 813.626 108.016 813.626 81.2974C813.626 54.4155 789.514 41.7076 774.199 49.5278ZM774.199 108.505C772.244 108.505 770.452 107.853 768.986 106.55V55.8818C770.452 54.5784 772.244 53.9267 774.199 53.9267C784.137 53.9267 792.446 65.9829 792.446 81.1345C792.446 97.4266 784.137 108.505 774.199 108.505Z" fill="black"/>
<path d="M896.878 94.494C896.878 99.3816 894.923 105.084 890.036 105.084C885.148 105.084 883.193 99.0557 883.193 87.8142V73.8031C883.193 59.1402 869.182 47.247 848.654 47.247C839.53 47.0841 828.452 50.3425 823.401 58.6514C819.654 64.0278 822.912 70.7076 827.963 73.1514C833.176 75.7581 839.53 74.1289 842.3 68.9155C845.07 63.5391 843.603 58.6515 838.227 54.5785C836.924 53.438 841.16 48.8762 848.654 48.8762C856.148 48.8762 858.755 56.0447 858.755 64.3537V74.1289C845.559 75.921 820.143 80.4828 820.143 96.449C820.143 110.134 832.362 115.348 844.418 115.348C854.519 115.348 859.733 108.668 862.339 104.106C866.575 111.926 874.07 115.348 881.564 115.348C889.71 115.348 898.508 107.528 898.508 94.494H896.878ZM853.379 108.668C850.12 108.668 844.581 107.365 844.581 95.3086C844.581 83.4154 851.261 78.6907 858.755 76.5727V87.8142C858.755 93.6794 859.733 98.4041 861.525 102.314C859.244 105.736 856.8 108.668 853.379 108.668Z" fill="black"/>
</svg>
